<?xml version="1.0" encoding="UTF-8" standalone="no"?>
<svg xmlns="http://www.w3.org/2000/svg" width="512" height="512" viewBox="0 0 512 512">
  <!-- Background circle -->
  <circle cx="256" cy="256" r="248" fill="#0b1f2a"/>
  <!-- Sun / solar -->
  <circle cx="160" cy="160" r="48" fill="#f2c14e"/>
  <g stroke="#f2c14e" stroke-width="8">
    <line x1="160" y1="92" x2="160" y2="120"/>
    <line x1="160" y1="200" x2="160" y2="228"/>
    <line x1="92" y1="160" x2="120" y2="160"/>
    <line x1="200" y1="160" x2="228" y2="160"/>
    <line x1="116" y1="116" x2="134" y2="134"/>
    <line x1="186" y1="186" x2="204" y2="204"/>
    <line x1="186" y1="116" x2="204" y2="98"/>
    <line x1="116" y1="186" x2="98" y2="204"/>
  </g>
  <!-- Battery -->
  <g>
    <rect x="248" y="290" width="176" height="116" rx="16" fill="#1dd3b0"/>
    <rect x="424" y="318" width="20" height="60" rx="6" fill="#1dd3b0"/>
    <!-- lightning bolt -->
    <polygon points="320,304 296,372 328,372 304,432 384,342 352,342 376,304" fill="#0b1f2a"/>
  </g>
  <!-- Graph line -->
  <polyline points="64,384 120,332 184,360 236,304" fill="none" stroke="#6ee7f7" stroke-width="10" stroke-linecap="round" stroke-linejoin="round"/>
</svg>
